<?xml version="1.0" encoding="iso-8859-1"?>
<!-- Generator: Adobe Illustrator 19.0.0, SVG Export Plug-In . SVG Version: 6.00 Build 0)  -->
<svg version="1.1" id="Layer_1" xmlns="http://www.w3.org/2000/svg" xmlns:xlink="http://www.w3.org/1999/xlink" x="0px" y="0px"
	 viewBox="0 0 511.999 511.999" style="enable-background:new 0 0 511.999 511.999;" xml:space="preserve">
<g>
	<g>
		<path fill="white" d="M256.003,94.976c-77.973,0-141.41,63.435-141.41,141.41c0,47.073,23.706,91.179,62.458,117.326v95.031
			c0,9.109,7.385,16.494,16.494,16.494h1.395c7.276,26.905,31.888,46.764,61.063,46.764c29.175,0,53.787-19.858,61.063-46.764h1.395
			c9.109,0,16.494-7.385,16.494-16.494v-95.031c38.752-26.146,62.459-70.253,62.459-117.326
			C397.413,158.412,333.977,94.976,256.003,94.976z M256.003,479.013c-10.612,0-19.966-5.488-25.372-13.777h50.743
			C275.97,473.525,266.616,479.013,256.003,479.013z M301.967,432.249h-91.929v-26.753h91.929V432.249z M310.202,330.309
			c-5.097,2.948-8.235,8.389-8.235,14.277v27.924h-91.929v-27.924c0-5.887-3.138-11.329-8.235-14.277
			c-33.446-19.348-54.223-55.337-54.223-93.923c0-59.785,48.637-108.422,108.422-108.422S364.425,176.6,364.425,236.385
			C364.426,274.971,343.649,310.961,310.202,330.309z"/>
	</g>
</g>
<g>
	<g>
		<path fill="white" d="M289.589,219.897h-34.444l25.529-34.493c5.42-7.322,3.876-17.65-3.445-23.069c-7.321-5.419-17.649-3.877-23.069,3.445
			l-44.999,60.798c-8.051,10.877-0.253,26.306,13.258,26.306h34.444l-25.529,34.493c-5.42,7.322-3.877,17.65,3.445,23.069
			c7.323,5.421,17.651,3.876,23.069-3.445l45-60.798C310.892,235.334,303.107,219.897,289.589,219.897z"/>
	</g>
</g>
<g>
	<g>
		<path fill="white" d="M72.518,219.921H36.085c-9.109,0-16.494,7.385-16.494,16.494c0,9.109,7.385,16.494,16.494,16.494h36.433
			c9.109,0,16.494-7.385,16.494-16.494C89.012,227.306,81.627,219.921,72.518,219.921z"/>
	</g>
</g>
<g>
	<g>
		<path fill="white" d="M137.92,95.008l-25.762-25.762c-6.44-6.441-16.884-6.441-23.325,0c-6.441,6.441-6.441,16.884,0,23.325l25.762,25.762
			c6.44,6.441,16.884,6.442,23.325,0C144.361,111.892,144.361,101.449,137.92,95.008z"/>
	</g>
</g>
<g>
	<g>
		<path fill="white" d="M255.999,0c-9.109,0-16.494,7.385-16.494,16.494v36.433c0,9.109,7.385,16.494,16.494,16.494s16.494-7.385,16.494-16.494
			V16.494C272.493,7.385,265.108,0,255.999,0z"/>
	</g>
</g>
<g>
	<g>
		<path fill="white" d="M475.914,219.921h-36.433c-9.109,0-16.494,7.385-16.494,16.494c0,9.109,7.385,16.494,16.494,16.494h36.433
			c9.109,0,16.494-7.385,16.494-16.494C492.408,227.306,485.024,219.921,475.914,219.921z"/>
	</g>
</g>
<g>
	<g>
		<path fill="white" d="M423.168,69.247c-6.439-6.44-16.883-6.441-23.325,0l-25.763,25.762c-6.441,6.441-6.441,16.884,0,23.325
			c6.44,6.44,16.883,6.44,23.325,0l25.763-25.762C429.609,86.131,429.609,75.688,423.168,69.247z"/>
	</g>
</g>
<g>
</g>
<g>
</g>
<g>
</g>
<g>
</g>
<g>
</g>
<g>
</g>
<g>
</g>
<g>
</g>
<g>
</g>
<g>
</g>
<g>
</g>
<g>
</g>
<g>
</g>
<g>
</g>
<g>
</g>
</svg>
